<svg xmlns="http://www.w3.org/2000/svg" viewBox="0 0 1000 550">
    <polygon points="206.25 27 235.67 117.57 286.86 27 206.25 27" fill="#11befc"/>
    <polygon points="338.04 117.57 367.46 27 286.86 27 338.04 117.57" fill="#077df4"/>
    <polygon points="286.86 27.43 235.67 118 338.04 118 286.86 27.43" fill="#2fdafc"/>
    <polygon points="338.04 117.68 500.18 121.93 367.46 27.11 338.04 117.68" fill="#0063f2"/>
    <polygon points="662.22 432.7 497.89 428.51 420.85 177.84 338.03 117.68 500.17 121.93 579.4 372.55 662.22 432.7" fill="#066bf3"/>
    <polygon points="420.84 372.54 338.03 432.7 367.46 523.28 420.84 372.54" fill="#0e83fb"/>
    <polygon points="286.86 433 367.46 523.58 338.03 433 286.86 433" fill="#03059f"/>
    <polygon points="206.25 523 235.68 432.42 367.46 523 206.25 523" fill="#004df0"/>
    <polygon points="367.46 523.58 235.68 433 286.86 433 367.46 523.58" fill="#2aa4fb"/>
    <polygon points="152.87 372.54 206.25 523.28 235.68 432.7 152.87 372.54" fill="#2bb0fb"/>
    <polygon points="152.87 372.54 75.82 428.52 206.25 523.28 152.87 372.54" fill="#0723be"/>
    <polygon points="152.87 372.54 121.24 275.19 75.82 428.52 152.87 372.54" fill="#076df3"/>
    <polygon points="26 275 75.82 428.33 121.24 275 26 275" fill="#0fa2fb"/>
    <polygon points="26 275 75.82 121.68 121.24 275 26 275" fill="#2fdafc"/>
    <polygon points="75.82 121.87 152.87 177.84 121.24 275.19 75.82 121.87" fill="#082bc7"/>
    <polygon points="75.82 121.87 217.95 130.55 206.25 27.11 75.82 121.87" fill="#006af3"/>
    <polygon points="75.82 121.87 152.87 177.84 217.95 130.55 75.82 121.87" fill="#30e0fc"/>
    <polygon points="206.25 27.11 217.95 130.55 235.67 117.68 206.25 27.11" fill="#077ff5"/>
    <polygon points="793.99 523 764.57 432.42 713.38 523 793.99 523" fill="#0c5dfa"/>
    <polygon points="662.21 432.42 632.78 523 713.38 523 662.21 432.42" fill="#0619b3"/>
    <polygon points="713.38 523.58 764.57 433 662.21 433 713.38 523.58" fill="#257afa"/>
    <polygon points="662.21 432.7 497.89 428.52 632.78 523.28 662.21 432.7" fill="#0041ef"/>
    <polygon points="662.22 117.68 579.4 177.84 469.16 219.88 500.17 121.93 632.78 27.1 662.22 117.68" fill="#005af1"/>
    <polygon points="713.38 118 632.78 27.43 662.21 118 713.38 118" fill="#066af3"/>
    <polygon points="793.99 27 764.56 117.57 632.78 27 793.99 27" fill="#0056f1"/>
    <polygon points="632.78 27.43 764.56 118 713.38 118 632.78 27.43" fill="#2bb6fb"/>
    <polygon points="847.37 177.84 793.99 27.11 764.56 117.68 847.37 177.84" fill="#2bb4fb"/>
    <polygon points="847.37 177.84 924.42 121.87 793.99 27.11 847.37 177.84" fill="#0722bc"/>
    <polygon points="847.37 177.84 879 275.19 924.42 121.87 847.37 177.84" fill="#0656f1"/>
    <polygon points="974.24 275 924.42 121.68 879 275 974.24 275" fill="#0d73fa"/>
    <polygon points="974.24 275 924.42 428.33 879 275 974.24 275" fill="#2680fa"/>
    <polygon points="924.42 428.52 847.37 372.54 879 275.19 924.42 428.52" fill="#061ab4"/>
    <polygon points="924.42 428.52 782.29 419.83 793.99 523.28 924.42 428.52" fill="#0037ee"/>
    <polygon points="924.42 428.52 847.37 372.54 782.29 419.83 924.42 428.52" fill="#267afa"/>
    <polygon points="793.99 523.28 782.29 419.83 764.57 432.7 793.99 523.28" fill="#0619b2"/>
    <polygon points="541.03 295.84 497.89 428.51 367.47 523.27 420.85 372.53 541.03 295.84" fill="#299efb"/>
    <polygon points="420.84 372.54 469.17 219.88 541.03 295.84 420.84 372.54" fill="#0e8ffb"/>
    <polygon points="469.17 219.88 541.03 295.84 568.81 210.39 469.17 219.88" fill="#0812bd"/>
    <polygon points="469.17 219.88 579.4 177.84 568.81 210.39 469.17 219.88" fill="#2bb2fb"/>
</svg>
