<svg viewBox="0 0 4167 2292" version="1.1" xmlns="http://www.w3.org/2000/svg">
    <path fill="#066bf3" d="M1194.71,112.167l-213.25,377.375l-122.583,-377.375l335.833,0Zm213.25,377.375l122.625,-377.375l-335.875,0l213.25,377.375Zm-213.25,-377.375l-213.25,377.375l426.5,0l-213.25,-377.375Zm213.25,377.375l675.625,17.708l-553,-395.083l-122.625,377.375Zm1005.71,1061.96l-330.125,-1044.25l-675.584,-17.75l345.084,250.708l320.833,1044.46l684.708,17.458l-344.916,-250.625Zm-660.667,0l-345.042,250.708l122.625,377.375l222.417,-628.083Zm-558.333,250.708l335.875,377.375l-122.625,-377.375l-213.25,0Zm335.875,377.375l-549.042,-377.416l-122.625,377.375l671.667,0.041Zm-335.875,-377.375l-213.167,0l549.083,377.375l-335.916,-377.375Zm-558.334,-250.708l222.459,628.083l122.625,-377.375l-345.084,-250.708Zm0,0l-320.833,233.333l543.458,394.834l-222.625,-628.167Zm0,0l-131.666,-405.667l-189.25,638.875l320.916,-233.208Zm-528.5,-405.667l207.584,638.875l189.25,-638.875l-396.834,0Zm396.834,0l-189.25,-638.833l-207.584,638.833l396.834,0Zm0,0l131.791,-405.625l-320.833,-233.333l189.042,638.958Zm-189.25,-638.833l592.208,36.167l-48.75,-431l-543.458,394.833Zm0,0l321.041,233.333l271.167,-197.041l-592.208,-36.292Zm543.458,-394.833l48.75,431l73.833,-53.625l-122.583,-377.375Zm2448.92,2067.38l-122.584,-377.375l-213.25,377.375l335.834,0Zm-549.084,-377.375l-122.625,377.375l335.875,0l-213.25,-377.375Zm213.25,377.375l213.25,-377.375l-426.5,0l213.25,377.375Zm-213.25,-377.375l-684.666,-17.459l562.041,394.834l122.625,-377.375Zm-122.625,-1690.04l-552.541,395.125l-129.167,408.125l459.333,-175l345.084,-250.708l-122.709,-377.542Zm335.875,377.417l-335.875,-377.375l122.625,377.375l213.25,0Zm-335.875,-377.375l549.084,377.375l122.625,-377.375l-671.709,0Zm335.875,377.375l213.209,0l-549.084,-377.375l335.875,377.375Zm558.334,250.666l-222.5,-628.041l-122.625,377.375l345.125,250.666Zm0,0l320.833,-233.333l-543.333,-394.708l222.5,628.041Zm0,0l131.708,405.625l189.25,-638.833l-320.958,233.208Zm528.541,405.625l-207.583,-638.833l-189.25,638.833l396.833,0Zm-396.833,0l189.25,638.875l207.583,-638.875l-396.833,0Zm0,0l-131.792,405.625l320.834,233.334l-189.042,-638.959Zm189.25,638.875l-592.208,-36.208l48.75,431.042l543.458,-394.834Zm0,0l-320.833,-233.333l-271.167,197.042l592,36.291Zm-543.458,394.834l-48.75,-431.042l-73.834,53.667l122.584,377.375Zm-1554.75,-628.125l-222.417,628.083l543.417,-394.833l179.75,-552.792l-500.75,319.542Zm500.75,-319.542l-299.417,-316.667l-201.375,636.25l500.792,-319.583Zm-299.417,-316.667l299.417,316.667l115.75,-356.042l-415.167,39.375Zm415.167,-39.541l44.125,-135.625l-459.292,175l415.167,-39.375Z"/>
    <path fill="#11befc" d="M858.875,112.167l122.583,377.375l213.292,-377.375l-335.875,0Z"/>
    <path fill="#077df4" d="M1408,489.542l122.583,-377.375l-335.833,0l213.25,377.375Z"/>
    <path fill="#2fdafc" d="M1194.75,112.167l-213.292,377.375l426.542,0l-213.25,-377.375Z"/>
    <path fill="#0063f2" d="M1408,489.542l675.333,17.708l-552.75,-395.083l-122.583,377.375Z"/>
    <path fill="#2bb0fb" d="M2413.67,1551.5l-339.625,233.208l-321,-1044.5l330.291,-232.958l330.334,1044.25Z"/>
    <path fill="#0e83fb" d="M1753,1551.46l-345.042,250.667l122.625,377.417l222.417,-628.084Z"/>
    <path fill="#004df0" d="M858.875,2179.54l122.625,-377.417l549.083,377.417l-671.708,0Z"/>
    <path fill="#2aa4fb" d="M1530.58,2179.54l-549.083,-377.417l426.458,0l122.625,377.417Z"/>
    <path fill="#2bb0fb" d="M636.458,1551.46l222.417,628.084l122.625,-377.417l-345.042,-250.667Z"/>
    <path fill="#0723be" d="M636.458,1551.46l-321.041,233.25l543.458,394.834l-222.417,-628.084Z"/>
    <path fill="#076df3" d="M636.458,1551.46l-131.791,-405.625l-189.25,638.875l321.041,-233.25Z"/>
    <path fill="#0fa2fb" d="M107.833,1145.83l207.584,638.875l189.25,-638.875l-396.834,0Z"/>
    <path fill="#2fdafc" d="M107.833,1145.83l207.584,-638.833l189.25,638.833l-396.834,0Z"/>
    <path fill="#082bc7" d="M315.417,507l321.041,233.208l-131.791,405.625l-189.25,-638.833Z"/>
    <path fill="#006af3" d="M315.417,507l666.041,-17.458l-122.583,-377.375l-543.458,394.833Z"/>
    <path fill="#30e0fc" d="M315.417,507l321.041,233.208l345,-250.666l-666.041,17.458Z"/>
    <path fill="#0c5dfa" d="M3307.79,2179.54l-122.584,-377.417l-213.291,377.417l335.875,0Z"/>
    <path fill="#0619b3" d="M2758.71,1802.13l-122.625,377.417l335.834,0l-213.209,-377.417Z"/>
    <path fill="#257afa" d="M2971.92,2179.54l213.291,-377.417l-426.5,0l213.209,377.417Z"/>
    <path fill="#0041ef" d="M2758.71,1802.13l-684.666,-17.417l562.041,394.834l122.625,-377.417Z"/>
    <path fill="#0056f1" d="M3307.79,112.167l-122.625,377.375l-549.084,-377.375l671.709,0Z"/>
    <path fill="#2bb6fb" d="M2636.08,112.167l549.084,377.375l-426.417,0l-122.667,-377.375Z"/>
    <path fill="#2bb4fb" d="M3530.21,740.208l-222.416,-628.041l-122.625,377.375l345.041,250.666Z"/>
    <path fill="#0722bc" d="M3530.21,740.208l321.042,-233.208l-543.458,-394.833l222.416,628.041Z"/>
    <path fill="#0656f1" d="M3530.21,740.208l131.792,405.625l189.25,-638.833l-321.042,233.208Z"/>
    <path fill="#0d73fa" d="M4058.83,1145.83l-207.583,-638.833l-189.25,638.833l396.833,0Z"/>
    <path fill="#2680fa" d="M4058.83,1145.83l-207.583,638.875l-189.25,-638.875l396.833,0Z"/>
    <path fill="#061ab4" d="M3851.25,1784.71l-321.042,-233.25l131.792,-405.625l189.25,638.875Z"/>
    <path fill="#0037ee" d="M3851.25,1784.71l-666.083,17.417l122.625,377.417l543.458,-394.834Z"/>
    <path fill="#267afa" d="M3851.25,1784.71l-321.042,-233.25l-345,250.667l666.042,-17.417Z"/>
    <path fill="#0e8ffb" d="M1753,1551.46l330.333,-1044.21l170.459,724.625l-500.792,319.583Z"/>
    <path fill="#0722bc" d="M2083.33,507.25l330.334,232.958l-159.875,491.667l-170.459,-724.625Z"/>
    <path fill="#299efb" d="M2074.04,1784.71l-321.042,-233.25l-222.417,628.084l543.459,-394.834Z"/>
    <path fill="#066bf3" d="M2758.71,1802.13l-345.041,-250.667l-339.625,233.25l684.666,17.417Z"/>
    <path fill="#076df3" d="M2074.04,1784.71l179.75,-552.833l-500.792,319.583l321.042,233.25Z"/>
    <path fill="#1577f9" d="M2083.33,507.25l-675.375,-17.708l345.042,250.666l330.333,-232.958Z"/>
    <path fill="#066bf3" d="M2083.33,507.25l552.75,-395.083l-222.416,628.041l-330.334,-232.958Z"/>
    <path fill="#267afa" d="M2636.08,112.167l122.625,377.375l-345.041,250.666l222.416,-628.041Z"/>
</svg>
