<svg viewBox="0 0 1800 1000" version="1.1" xmlns="http://www.w3.org/2000/svg">
    <path fill="#066bf3" d="M512.221,48.938l-93.041,164.649l-53.483,-164.649l146.524,0Zm93.041,164.649l53.501,-164.649l-146.542,0l93.041,164.649Zm-93.041,-164.649l-93.041,164.649l186.082,0l-93.041,-164.649Zm93.041,164.649l294.775,7.726l-241.274,-172.375l-53.501,164.649Zm438.791,463.334l-144.033,-455.607l-294.758,-7.744l150.56,109.384l139.98,455.698l298.738,7.617l-150.487,-109.348l0,0Zm-288.249,0l-150.542,109.384l53.502,164.648l97.04,-274.032Zm-243.601,109.384l146.543,164.648l-53.502,-164.648l-93.041,0Zm146.543,164.648l-239.547,-164.666l-53.502,164.648l293.049,0.018Zm-146.543,-164.648l-93.004,0l239.565,164.648l-146.561,-164.648Zm-243.601,-109.384l97.059,274.032l53.501,-164.648l-150.56,-109.384Zm0,0l-139.979,101.803l237.11,172.266l-97.131,-274.069Zm0,0l-57.446,-176.993l-82.57,278.741l140.016,-101.748Zm-230.585,-176.993l90.569,278.741l82.57,-278.741l-173.139,0Zm173.139,0l-82.57,-278.723l-90.569,278.723l173.139,0Zm0,0l57.501,-176.974l-139.98,-101.803l82.479,278.777Zm-82.57,-278.723l258.381,15.78l-21.27,-188.046l-237.111,172.266Zm0,0l140.071,101.803l118.31,-85.969l-258.381,-15.834Zm237.111,-172.266l21.27,188.046l32.213,-23.397l-53.483,-164.649Zm1068.46,901.999l-53.483,-164.649l-93.041,164.649l146.524,0Zm-239.565,-164.649l-53.501,164.649l146.542,0l-93.041,-164.649Zm93.041,164.649l93.041,-164.649l-186.082,0l93.041,164.649Zm-93.041,-164.649l-298.72,-7.618l245.219,172.267l53.501,-164.649Zm-53.501,-737.365l-241.074,172.393l-56.356,178.065l200.407,-76.352l150.561,-109.384l-53.538,-164.722Zm146.542,164.667l-146.542,-164.649l53.501,164.649l93.041,0Zm-146.542,-164.649l239.565,164.649l53.501,-164.649l-293.066,0Zm146.542,164.649l93.023,0l-239.565,-164.649l146.542,164.649Zm243.601,109.366l-97.077,-274.015l-53.501,164.649l150.578,109.366Zm0,0l139.98,-101.803l-237.057,-172.212l97.077,274.015Zm0,0l57.464,176.974l82.57,-278.723l-140.034,101.749Zm230.603,176.974l-90.569,-278.723l-82.57,278.723l173.139,0Zm-173.139,0l82.57,278.741l90.569,-278.741l-173.139,0Zm0,0l-57.5,176.974l139.98,101.804l-82.48,-278.778Zm82.57,278.741l-258.38,-15.797l21.269,188.063l237.111,-172.266Zm0,0l-139.979,-101.803l-118.31,85.97l258.289,15.833Zm-237.111,172.266l-21.269,-188.063l-32.214,23.415l53.483,164.648Zm-678.337,-274.051l-97.041,274.033l237.093,-172.266l78.425,-241.183l-218.477,139.416Zm218.477,-139.416l-130.636,-138.162l-87.86,277.596l218.496,-139.434Zm-130.636,-138.162l130.636,138.162l50.502,-155.341l-181.138,17.179Zm181.138,-17.251l19.252,-59.174l-200.39,76.353l181.138,-17.179Z"/>
    <path fill="#11befc" d="M365.696,48.938l53.483,164.649l93.059,-164.649l-146.542,0Z"/>
    <path fill="#077df4" d="M605.279,213.587l53.483,-164.649l-146.524,0l93.041,164.649Z"/>
    <path fill="#2fdafc" d="M512.238,48.938l-93.059,164.649l186.1,0l-93.041,-164.649Z"/>
    <path fill="#0063f2" d="M605.279,213.587l294.648,7.726l-241.165,-172.375l-53.483,164.649Z"/>
    <path fill="#2bb0fb" d="M1044.05,676.92l-148.178,101.748l-140.053,-455.715l144.106,-101.64l144.125,455.607Z"/>
    <path fill="#0e83fb" d="M755.803,676.902l-150.542,109.366l53.501,164.667l97.041,-274.033Z"/>
    <path fill="#004df0" d="M365.696,950.934l53.501,-164.667l239.565,164.667l-293.066,0Z"/>
    <path fill="#2aa4fb" d="M658.761,950.934l-239.565,-164.667l186.064,0l53.501,164.667Z"/>
    <path fill="#2bb0fb" d="M268.655,676.902l97.041,274.033l53.501,-164.667l-150.542,-109.366Z"/>
    <path fill="#0723be" d="M268.655,676.902l-140.07,101.767l237.111,172.266l-97.041,-274.033Z"/>
    <path fill="#076df3" d="M268.655,676.902l-57.5,-176.974l-82.57,278.741l140.07,-101.767Z"/>
    <path fill="#0fa2fb" d="M38.016,499.926l90.569,278.741l82.57,-278.741l-173.139,0Z"/>
    <path fill="#2fdafc" d="M38.016,499.926l90.569,-278.723l82.57,278.723l-173.139,0Z"/>
    <path fill="#082bc7" d="M128.585,221.204l140.07,101.749l-57.5,176.974l-82.57,-278.723Z"/>
    <path fill="#006af3" d="M128.585,221.204l290.594,-7.617l-53.483,-164.649l-237.111,172.266Z"/>
    <path fill="#30e0fc" d="M128.585,221.204l140.07,101.749l150.524,-109.366l-290.594,7.617Z"/>
    <path fill="#0c5dfa" d="M1434.16,950.934l-53.483,-164.667l-93.059,164.667l146.542,0Z"/>
    <path fill="#0619b3" d="M1194.59,786.27l-53.501,164.667l146.524,0l-93.023,-164.667Z"/>
    <path fill="#257afa" d="M1287.62,950.934l93.059,-164.667l-186.082,0l93.023,164.667Z"/>
    <path fill="#0041ef" d="M1194.59,786.27l-298.72,-7.599l245.219,172.266l53.501,-164.667Z"/>
    <path fill="#0056f1" d="M1434.16,48.938l-53.501,164.649l-239.566,-164.649l293.067,0Z"/>
    <path fill="#2bb6fb" d="M1141.09,48.938l239.565,164.649l-186.046,0l-53.519,-164.649Z"/>
    <path fill="#2bb4fb" d="M1531.2,322.953l-97.04,-274.015l-53.502,164.649l150.542,109.366Z"/>
    <path fill="#0722bc" d="M1531.2,322.953l140.071,-101.749l-237.111,-172.266l97.04,274.015Z"/>
    <path fill="#0656f1" d="M1531.2,322.953l57.501,176.974l82.57,-278.723l-140.071,101.749Z"/>
    <path fill="#0d73fa" d="M1761.84,499.926l-90.569,-278.723l-82.569,278.723l173.138,0Z"/>
    <path fill="#2680fa" d="M1761.84,499.926l-90.569,278.741l-82.569,-278.741l173.138,0Z"/>
    <path fill="#061ab4" d="M1671.27,778.669l-140.071,-101.767l57.501,-176.974l82.57,278.741Z"/>
    <path fill="#0037ee" d="M1671.27,778.669l-290.612,7.599l53.501,164.667l237.111,-172.266Z"/>
    <path fill="#267afa" d="M1671.27,778.669l-140.071,-101.767l-150.524,109.366l290.595,-7.599Z"/>
    <path fill="#0e8ffb" d="M755.803,676.902l144.124,-455.589l74.371,316.154l-218.495,139.434l0,0.001Z"/>
    <path fill="#0722bc" d="M899.926,221.313l144.125,101.64l-69.754,214.514l-74.371,-316.154Z"/>
    <path fill="#299efb" d="M895.873,778.669l-140.071,-101.767l-97.041,274.033l237.112,-172.266Z"/>
    <path fill="#066bf3" d="M1194.59,786.27l-150.541,-109.366l-148.179,101.767l298.72,7.599Z"/>
    <path fill="#076df3" d="M895.873,778.669l78.425,-241.201l-218.496,139.434l140.071,101.767Z"/>
    <path fill="#1577f9" d="M899.926,221.313l-294.666,-7.726l150.541,109.366l144.125,-101.64Z"/>
    <path fill="#066bf3" d="M899.926,221.313l241.165,-172.375l-97.04,274.015l-144.125,-101.64Z"/>
    <path fill="#267afa" d="M1141.09,48.938l53.501,164.649l-150.541,109.366l97.04,-274.015Z"/>
</svg>
